<?xml version="1.0" encoding="UTF-8"?>
<svg id="Layer_1" data-name="Layer 1" xmlns="http://www.w3.org/2000/svg" width="19in" height="6.38in" viewBox="0 0 1368 459">
  <defs>
    <style>
      .cls-1 {
        fill: #000000;
      }

      .cls-1, .cls-2 {
        stroke-width: 0px;
      }

      .cls-2 {
        fill: #f0494a;
      }
    </style>
  </defs>
  <g>
    <path class="cls-2" d="M826.67,17.23c.86,0,79.15.01,120.09-.04,2.07,0,3.37.68,4.61,2.3,13.61,17.77,27.27,35.49,40.93,53.22,8.25,10.7,16.51,21.38,24.76,32.08.37.48.68,1,1.28,1.89-1.46.08-2.54.19-3.62.19-34.23,0-68.45,0-102.68,0-6.56,0-13.12-.06-19.67.04-2.03.03-3.38-.58-4.64-2.24-9.87-12.98-19.84-25.89-29.79-38.81-11.95-15.52-20.8-26.99-32.75-42.5-.37-.48,1.54-5.03,1.2-5.54l.28-.6Z"/>
    <path class="cls-2" d="M832.04,17.23c-.86,0-5.32-.04-5.32-.04-2.07,0-3.37.68-4.61,2.3-13.61,17.77-27.27,35.49-40.93,53.22-8.25,10.7-16.51,21.38-24.76,32.08-.37.48-.68,1-1.28,1.89,1.46.08,3.7.23,5.87.23,2.03.03,3.38-.58,4.64-2.24,9.87-12.98,19.84-25.89,29.79-38.81,11.95-15.52,23.91-31.02,35.86-46.54.37-.48.68-1,1.02-1.51l-.28-.6Z"/>
    <path class="cls-2" d="M1350.95,106.88h-2.58c-40.47,0-80.94-.01-121.4.04-2.21,0-3.7-.67-5.07-2.45-12.81-16.77-25.7-33.48-38.58-50.2-8.78-11.4-17.58-22.79-26.36-34.18-.57-.74-1.1-1.53-1.95-2.71,1.34-.06,2.25-.13,3.16-.13,26.87,0,53.74,0,80.62,0,13.12,0,26.23.04,39.35-.04,2.17-.01,3.69.52,5.09,2.34,6.62,8.62,13.4,17.12,20.13,25.66,9.4,11.93,18.81,23.85,28.21,35.78,6.14,7.78,12.27,15.57,18.39,23.37.48.61.87,1.28,1.3,1.92-.1.21-.21.41-.31.62Z"/>
    <path class="cls-2" d="M1184.56,106.69c-1.6.08-2.68.18-3.76.18-37.43,0-74.87,0-112.3,0-3.04,0-6.08-.05-9.12.02-1.65.04-2.81-.48-3.86-1.86-5.5-7.26-11.12-14.45-16.68-21.66-12.94-16.77-25.88-33.55-38.82-50.33-3.27-4.24-6.54-8.48-9.8-12.74-.61-.79-1.16-1.63-2.06-2.89,1.65-.08,2.72-.18,3.8-.18,37.11,0,74.23,0,111.34,0,2.96,0,5.92.05,8.88-.02,1.58-.03,2.68.52,3.67,1.78,11.93,15.23,23.89,30.43,35.86,45.63,10.39,13.19,20.8,26.36,31.19,39.54.52.66.92,1.4,1.66,2.52Z"/>
  </g>
  <g>
    <path class="cls-1" d="M931.41,148.45c1.14-.12,1.97-.28,2.81-.28,4.56-.03,9.12-.03,13.68,0,2.61.01,2.69.09,3.48,2.66,6.9,22.22,13.8,44.44,20.7,66.66.29.95.65,1.88.98,2.81.18-.01.36-.02.54-.03.28-.79.6-1.58.85-2.39,6.8-22.08,13.6-44.16,20.4-66.24.16-.53.37-1.06.5-1.6.33-1.41,1.22-1.9,2.63-1.88,3.36.05,6.72,0,10.08.02,2.17.02,2.3.1,3,2.32,2.22,7.01,4.4,14.04,6.59,21.06,4.91,15.72,9.81,31.44,14.73,47.16.2.64.49,1.25.92,2.33.42-1.13.69-1.77.89-2.43,6.78-22.17,13.55-44.35,20.33-66.52.21-.69.49-1.36.65-2.06.32-1.43,1.23-1.89,2.62-1.88,5.12.04,10.24.01,15.36.02.46,0,.93.12,1.73.22-.23,1.03-.36,1.93-.65,2.79-3.19,9.47-6.41,18.93-9.62,28.4-5.73,16.88-11.47,33.77-17.2,50.65-1.26,3.71-2.52,7.42-3.82,11.12-.66,1.88-.79,1.99-2.75,2-4.4.03-8.8.03-13.2,0-2.19-.01-2.3-.09-3-2.3-2.58-8.16-5.13-16.32-7.69-24.48-4.12-13.12-8.23-26.24-12.35-39.36-.4-1.28-.83-2.56-1.4-4.31-.43.87-.71,1.3-.86,1.78-6.9,21.97-13.79,43.94-20.69,65.9-.14.46-.31.91-.45,1.37-.3.98-.98,1.4-1.98,1.4-4.96,0-9.92-.02-14.88.02-1.42.01-1.9-.85-2.28-2-1.44-4.41-2.93-8.8-4.4-13.2-8.47-25.49-16.95-50.99-25.41-76.48-.32-.95-.51-1.95-.84-3.22Z"/>
    <path class="cls-1" d="M537.59,244.88c-13,.16-24.57-2.5-35.34-8.33-7.71-4.18-14.35-9.64-19.12-17.09-9.92-15.51-9.71-31.25-.32-46.82,6-9.95,15.17-16.3,25.77-20.67,9.59-3.95,19.61-5.54,29.99-5.37,9.39.15,18.44,1.83,27.1,5.41,10.35,4.28,19.12,10.64,25.41,20.07,10.51,15.73,9.65,35.51-2.13,50.32-6.76,8.5-15.46,14.27-25.57,18-8.56,3.15-17.41,4.73-25.79,4.48ZM537.25,160.1c-2.78.25-5.58.34-8.34.76-9.94,1.53-18.72,5.51-25.48,13.13-8.05,9.06-10.61,19.56-7,31.22,2.75,8.91,8.69,15.38,16.78,19.82,11.12,6.11,22.98,7.46,35.3,4.82,9.79-2.1,18.06-6.84,24.14-14.94,5.55-7.39,7.76-15.7,6.03-24.87-1.61-8.56-6.19-15.36-12.98-20.65-8.34-6.49-17.96-9.2-28.45-9.3Z"/>
    <path class="cls-1" d="M908.71,195.75c0,14.4,0,28.79,0,43.19,0,.4,0,.8,0,1.2-.02,3.18-.03,3.21-3.21,3.21-4.4.01-8.8.02-13.2,0-2.41-.02-2.59-.19-2.59-2.61-.02-11.84,0-23.68-.01-35.51,0-3.26,0-3.27-3.36-3.27-14.32,0-28.63,0-42.95,0-.08,0-.16,0-.24,0-3.1.02-3.11.02-3.11,3.04,0,11.52,0,23.04,0,34.55q0,3.81-3.8,3.82c-4.24,0-8.48.02-12.72-.01-2.27-.02-2.46-.22-2.47-2.49-.03-4.56-.01-9.12-.01-13.68,0-25.11,0-50.23,0-75.34q0-3.67,3.72-3.68c4.16,0,8.32-.02,12.48,0,2.68.01,2.8.14,2.81,2.89.01,10.88,0,21.76,0,32.63,0,.48,0,.96,0,1.44.02,2.84.02,2.85,2.76,2.86,4,.02,8,0,12,0,10.4,0,20.8,0,31.19,0,.72,0,1.44-.02,2.16-.02,1.12,0,1.58-.58,1.55-1.65-.02-.64,0-1.28,0-1.92,0-10.72,0-21.44,0-32.15,0-.64-.02-1.28.01-1.92.08-1.85.27-2.13,2.08-2.15,4.96-.05,9.92-.05,14.88,0,1.71.02,1.92.3,2.02,1.97.04.72.02,1.44.02,2.16,0,14.48,0,28.95,0,43.43Z"/>
    <path class="cls-1" d="M686.81,181.99c0-9.84,0-19.67,0-29.51,0-.72-.02-1.44.03-2.16.13-1.8.39-2.13,2.15-2.15,4.96-.05,9.92-.04,14.87,0,1.66.02,1.95.36,2.09,1.96.06.64.03,1.28.03,1.92,0,18.87,0,37.74,0,56.61,0,4.01-.37,7.98-1.34,11.88-1.46,5.86-4.49,10.71-9.24,14.48-6.55,5.19-13.93,8.37-22.24,9.38-9.01,1.09-17.86.5-26.48-2.49-5.87-2.03-10.85-5.44-15.08-9.93-4.84-5.13-6.87-11.43-7.28-18.33-.08-1.36-.06-2.72-.06-4.08,0-19.27,0-38.54,0-57.81q0-3.61,3.52-3.62c4.08,0,8.16,0,12.23,0,3.21,0,3.24.04,3.24,3.19,0,14.71,0,29.43,0,44.14,0,4.32-.06,8.64.03,12.95.05,2.47.13,4.98.62,7.4,1.35,6.72,5.35,11.37,11.78,13.7,6.55,2.38,13.2,2.39,19.68-.23,6.97-2.82,10.54-8.28,11.29-15.65.2-1.98.14-3.99.14-5.99.01-8.56,0-17.11,0-25.67Z"/>
    <path class="cls-1" d="M389.16,214.81c2.4,0,4.8-.03,7.2.01,1.86.03,1.96.15,2.39,1.97.17.7.27,1.41.46,2.11,1.11,4.02,3.36,7.2,6.87,9.49,7.7,5.03,19.35,4.21,26.19-1.95,3.08-2.77,4.68-6.19,4.45-10.43-.17-3.07-1.34-5.65-3.76-7.46-1.9-1.42-3.98-2.79-6.19-3.58-5.87-2.09-11.83-3.93-17.8-5.72-4.6-1.39-9.24-2.7-13.42-5.11-2.54-1.47-5.04-3.14-7.23-5.09-9.17-8.17-8.28-21.11-2.09-29.13,3.16-4.1,7.18-7.08,11.89-9.07,14.17-6,28.31-6.13,42.13,1.01,7.16,3.7,11.53,9.72,13.1,17.69.03.16.07.31.1.47.46,2.71.13,3.15-2.57,3.16-4.48.03-8.96.03-13.44,0-2.24-.02-2.37-.08-3.04-2.26-2.27-7.41-7.49-10.64-15.09-11.04-4.66-.25-9.11.57-13.06,3.18-3.64,2.4-5.72,5.68-5.59,10.22.09,3.11,1.27,5.63,3.74,7.42,1.6,1.16,3.36,2.23,5.21,2.92,4.64,1.73,9.34,3.31,14.06,4.8,5.58,1.75,11.11,3.6,16.34,6.22,1.78.89,3.54,1.86,5.21,2.95,9.23,6.02,12.64,15.24,9.56,25.83-2.34,8.05-7.69,13.52-15.08,17.1-5.83,2.83-12.06,4.15-18.54,4.33-6.42.18-12.79-.09-18.99-1.98-6.48-1.97-12.24-5.09-16.61-10.43-3.55-4.35-5.38-9.4-5.99-14.93-.26-2.34.05-2.68,2.37-2.71,2.4-.03,4.8,0,7.2,0Z"/>
    <path class="cls-1" d="M1195.11,214.81c2.24,0,4.48-.02,6.72,0,2.41.02,2.39.05,2.94,2.48.28,1.24.59,2.5,1.07,3.67,1.68,4.13,4.61,7.12,8.73,8.76,8.38,3.34,16.32,2.62,23.44-3.18,3.28-2.67,4.86-6.25,4.62-10.58-.16-2.98-1.28-5.52-3.6-7.29-1.95-1.48-4.09-2.9-6.38-3.72-5.86-2.1-11.83-3.92-17.8-5.72-4.6-1.39-9.24-2.7-13.41-5.12-2.54-1.47-5.04-3.14-7.22-5.09-9.08-8.11-8.26-20.91-2.19-28.95,3.17-4.2,7.26-7.23,12.04-9.25,14.18-5.98,28.32-6.12,42.13,1.04,7.15,3.7,11.52,9.73,13.08,17.7.05.24.11.47.14.71.35,2.43.02,2.87-2.42,2.89-4.56.04-9.12.03-13.68,0-2.2-.02-2.34-.09-3.01-2.29-2.25-7.33-7.43-10.61-15.11-11-4.58-.23-8.94.57-12.85,3.07-3.85,2.46-5.98,5.87-5.75,10.61.13,2.73,1.08,5.06,3.21,6.69,1.69,1.3,3.55,2.53,5.53,3.29,4.7,1.8,9.48,3.38,14.28,4.89,5.73,1.8,11.41,3.72,16.77,6.44,1.64.83,3.25,1.74,4.78,2.75,9.22,6.04,12.62,15.25,9.53,25.84-2.35,8.05-7.71,13.51-15.1,17.08-5.84,2.82-12.07,4.13-18.55,4.32-6.42.18-12.79-.09-18.99-1.99-6.89-2.1-12.94-5.49-17.33-11.4-3.14-4.23-4.75-9.03-5.25-14.23-.2-2.07.12-2.4,2.19-2.43,2.48-.04,4.96,0,7.44-.01Z"/>
    <path class="cls-1" d="M1163.08,161.82c-1.53.11-2.71.25-3.88.26-13.04.02-26.07,0-39.11.01q-3.57,0-3.58,3.54c0,6.56,0,13.12,0,19.67v2.86c1.22.09,2.22.23,3.22.23,13.04.01,26.07,0,39.11.01q3.7,0,3.71,3.67c0,2,0,4,0,6q0,3.99-3.89,4c-12.72,0-25.43,0-38.15,0-4.41,0-3.98-.32-3.99,4.02-.01,6.8,0,13.59,0,20.39,0,.64,0,1.28.04,1.92.04.77.48,1.16,1.23,1.19.72.03,1.44.04,2.16.04,13.28,0,26.55,0,39.83,0,3.3,0,3.31.01,3.32,3.31,0,2.72.03,5.44-.01,8.16-.03,1.99-.24,2.16-2.23,2.24-.48.02-.96,0-1.44,0-19.43,0-38.87,0-58.3,0q-3.58,0-3.59-3.55c0-29.35,0-58.7,0-88.05,0-3.6,0-3.61,3.55-3.61,19.51,0,39.03,0,58.54,0,3.48,0,3.48.01,3.49,3.42,0,3.27,0,6.53,0,10.24Z"/>
    <path class="cls-1" d="M753.82,202.56c0-12.08,0-24.16,0-36.24,0-.56,0-1.12,0-1.68-.05-2.33-.18-2.48-2.42-2.54-.96-.03-1.92,0-2.88,0-5.84,0-11.68,0-17.52,0-.72,0-1.44.02-2.16-.05-1.51-.16-1.78-.4-1.81-1.96-.05-3.28-.06-6.56,0-9.84.03-1.7.31-1.94,1.94-2.06.56-.04,1.12-.02,1.68-.02,21.76,0,43.52,0,65.28,0q3.72,0,3.73,3.68c0,2.4.01,4.8,0,7.2-.02,2.83-.18,3.03-2.97,3.04-6.48.03-12.96,0-19.44.01-.88,0-1.76.02-2.64.02-1.16,0-1.81.5-1.77,1.73.02.72,0,1.44,0,2.16,0,24.56,0,49.12,0,73.68q0,3.68-3.7,3.68c-4.24,0-8.48.02-12.72-.01-2.39-.02-2.58-.2-2.58-2.63-.01-12.72,0-25.44,0-38.16Z"/>
    <path class="cls-1" d="M1322.91,202.95c0,12.4,0,24.8,0,37.2,0,3.19-.02,3.2-3.21,3.21-4.32.01-8.64.02-12.96,0-2.7-.01-2.83-.14-2.83-2.86,0-21.04,0-42.08,0-63.12,0-4.08,0-8.16,0-12.24,0-2.99-.04-3.03-3.13-3.04-6.72,0-13.44,0-20.16,0-3.48,0-3.51-.06-3.52-3.44,0-2.48-.01-4.96,0-7.44.02-2.97.08-3.04,3.15-3.04,4.08-.01,8.16,0,12.24,0,17.84,0,35.68,0,53.52,0q3.73,0,3.74,3.67c0,2.32,0,4.64,0,6.96-.01,3.15-.12,3.28-3.2,3.29-6.32.02-12.64,0-18.96,0-.96,0-1.92.02-2.88.02-1.15,0-1.82.48-1.78,1.72.02.64-.01,1.28-.01,1.92,0,12.4,0,24.8,0,37.2Z"/>
  </g>
  <g>
    <path class="cls-1" d="M95.2,399.35h-16.74v38.89H16.74v-154.7h88.13c51,0,83.42,22.54,83.42,58.34,0,22.32-12.55,39.12-34.52,48.62l38.44,47.73h-65.9l-31.12-38.89ZM100.95,323.77h-22.49v36.24h22.49c17,0,25.11-6.85,25.11-18.12s-8.11-18.12-25.11-18.12Z"/>
    <path class="cls-2" d="M204.25,360.9c0-46.85,43.67-80.88,103.3-80.88s103.3,34.03,103.3,80.88-43.67,80.88-103.3,80.88-103.3-34.03-103.3-80.88ZM348.61,360.9c0-24.09-18.31-38.67-41.06-38.67s-41.06,14.58-41.06,38.67,18.31,38.67,41.06,38.67,41.06-14.59,41.06-38.67Z"/>
    <path class="cls-1" d="M426.01,360.9c0-46.85,43.67-80.88,103.3-80.88s103.3,34.03,103.3,80.88-43.67,80.88-103.3,80.88-103.3-34.03-103.3-80.88ZM570.37,360.9c0-24.09-18.31-38.67-41.06-38.67s-41.06,14.58-41.06,38.67,18.31,38.67,41.06,38.67,41.06-14.59,41.06-38.67Z"/>
    <path class="cls-1" d="M716.82,322.89v26.52h76.36v39.34h-76.36v49.5h-61.72v-154.7h148.81v39.34h-87.09Z"/>
    <path class="cls-1" d="M975.72,398.91v39.34h-152.2v-154.7h148.81v39.34h-88.13v18.12h77.41v37.57h-77.41v20.33h91.53Z"/>
    <path class="cls-1" d="M1077.97,399.35h-16.74v38.89h-61.72v-154.7h88.13c51,0,83.42,22.54,83.42,58.34,0,22.32-12.55,39.12-34.52,48.62l38.44,47.73h-65.9l-31.12-38.89ZM1083.73,323.77h-22.49v36.24h22.49c17,0,25.11-6.85,25.11-18.12s-8.11-18.12-25.11-18.12Z"/>
    <path class="cls-1" d="M1182.84,425.87l19.88-38.01c17.26,8.62,40.27,14.14,60.41,14.14,17.52,0,23.8-3.09,23.8-8.4,0-19.45-101.21-3.76-101.21-61.44,0-28.73,28.51-52.15,85.26-52.15,24.58,0,49.95,4.42,69.04,13.48l-18.57,37.79c-18.04-7.73-35.04-11.49-51-11.49-18.04,0-23.8,4.42-23.8,9.72,0,18.56,101.21,3.09,101.21,60.11,0,28.29-28.51,52.16-85.26,52.16-30.6,0-61.46-6.41-79.76-15.91Z"/>
  </g>
</svg>